<mxfile host="app.diagrams.net" modified="2024-04-01T23:25:54.325Z" agent="Mozilla/5.0 (Windows NT 10.0; Win64; x64) AppleWebKit/537.36 (KHTML, like Gecko) Chrome/121.0.0.0 Safari/537.36 OPR/107.0.0.0" etag="7CVUSX7cG0dDURUM2M1m" version="24.1.0" type="device">
  <diagram name="Страница — 1" id="VkKWLKDEFsiqcxtJYfE3">
    <mxGraphModel dx="1178" dy="776" grid="1" gridSize="10" guides="1" tooltips="1" connect="1" arrows="1" fold="1" page="1" pageScale="1" pageWidth="827" pageHeight="1169" math="0" shadow="0">
      <root>
        <mxCell id="0" />
        <mxCell id="1" parent="0" />
        <mxCell id="HJVtXFpzKHbwxDrWrKJv-9" style="edgeStyle=orthogonalEdgeStyle;rounded=0;orthogonalLoop=1;jettySize=auto;html=1;exitX=0.5;exitY=1;exitDx=0;exitDy=0;entryX=0.5;entryY=0;entryDx=0;entryDy=0;" edge="1" parent="1" source="HJVtXFpzKHbwxDrWrKJv-1" target="HJVtXFpzKHbwxDrWrKJv-2">
          <mxGeometry relative="1" as="geometry" />
        </mxCell>
        <mxCell id="HJVtXFpzKHbwxDrWrKJv-1" value="&lt;font style=&quot;font-size: 18px;&quot;&gt;Начало&lt;/font&gt;" style="ellipse;whiteSpace=wrap;html=1;" vertex="1" parent="1">
          <mxGeometry x="320" y="40" width="180" height="80" as="geometry" />
        </mxCell>
        <mxCell id="HJVtXFpzKHbwxDrWrKJv-10" style="edgeStyle=orthogonalEdgeStyle;rounded=0;orthogonalLoop=1;jettySize=auto;html=1;exitX=0.5;exitY=1;exitDx=0;exitDy=0;entryX=0.5;entryY=0;entryDx=0;entryDy=0;" edge="1" parent="1" source="HJVtXFpzKHbwxDrWrKJv-2" target="HJVtXFpzKHbwxDrWrKJv-3">
          <mxGeometry relative="1" as="geometry" />
        </mxCell>
        <mxCell id="HJVtXFpzKHbwxDrWrKJv-2" value="SetWindowCaption(&#39;Фракталы: Ковер Серпинского&#39;);" style="rounded=0;whiteSpace=wrap;html=1;" vertex="1" parent="1">
          <mxGeometry x="320" y="140" width="180" height="70" as="geometry" />
        </mxCell>
        <mxCell id="HJVtXFpzKHbwxDrWrKJv-11" style="edgeStyle=orthogonalEdgeStyle;rounded=0;orthogonalLoop=1;jettySize=auto;html=1;exitX=0.5;exitY=1;exitDx=0;exitDy=0;entryX=0.5;entryY=0;entryDx=0;entryDy=0;" edge="1" parent="1" source="HJVtXFpzKHbwxDrWrKJv-3" target="HJVtXFpzKHbwxDrWrKJv-8">
          <mxGeometry relative="1" as="geometry" />
        </mxCell>
        <mxCell id="HJVtXFpzKHbwxDrWrKJv-3" value="x1 := 20;&lt;div&gt;&lt;span style=&quot;background-color: initial;&quot;&gt;y1 := 20;&lt;/span&gt;&lt;div&gt;x2 := 460;&lt;/div&gt;&lt;div&gt;y1 := 460;&lt;/div&gt;&lt;/div&gt;" style="rounded=0;whiteSpace=wrap;html=1;" vertex="1" parent="1">
          <mxGeometry x="320" y="240" width="180" height="70" as="geometry" />
        </mxCell>
        <mxCell id="HJVtXFpzKHbwxDrWrKJv-13" style="edgeStyle=orthogonalEdgeStyle;rounded=0;orthogonalLoop=1;jettySize=auto;html=1;exitX=0.5;exitY=1;exitDx=0;exitDy=0;" edge="1" parent="1" source="HJVtXFpzKHbwxDrWrKJv-4" target="HJVtXFpzKHbwxDrWrKJv-5">
          <mxGeometry relative="1" as="geometry" />
        </mxCell>
        <mxCell id="HJVtXFpzKHbwxDrWrKJv-4" value="&lt;font style=&quot;font-size: 16px;&quot;&gt;LockDrawing;&lt;/font&gt;" style="rounded=0;whiteSpace=wrap;html=1;" vertex="1" parent="1">
          <mxGeometry x="320" y="430" width="180" height="60" as="geometry" />
        </mxCell>
        <mxCell id="HJVtXFpzKHbwxDrWrKJv-14" style="edgeStyle=orthogonalEdgeStyle;rounded=0;orthogonalLoop=1;jettySize=auto;html=1;exitX=0.5;exitY=1;exitDx=0;exitDy=0;entryX=0.5;entryY=0;entryDx=0;entryDy=0;" edge="1" parent="1" source="HJVtXFpzKHbwxDrWrKJv-5" target="HJVtXFpzKHbwxDrWrKJv-6">
          <mxGeometry relative="1" as="geometry" />
        </mxCell>
        <mxCell id="HJVtXFpzKHbwxDrWrKJv-5" value="&lt;font style=&quot;font-size: 16px;&quot;&gt;KeyDown(1);&lt;/font&gt;" style="rounded=0;whiteSpace=wrap;html=1;" vertex="1" parent="1">
          <mxGeometry x="320" y="510" width="180" height="60" as="geometry" />
        </mxCell>
        <mxCell id="HJVtXFpzKHbwxDrWrKJv-15" style="edgeStyle=orthogonalEdgeStyle;rounded=0;orthogonalLoop=1;jettySize=auto;html=1;exitX=0.5;exitY=1;exitDx=0;exitDy=0;entryX=0.5;entryY=0;entryDx=0;entryDy=0;" edge="1" parent="1" source="HJVtXFpzKHbwxDrWrKJv-6" target="HJVtXFpzKHbwxDrWrKJv-7">
          <mxGeometry relative="1" as="geometry" />
        </mxCell>
        <mxCell id="HJVtXFpzKHbwxDrWrKJv-6" value="&lt;font style=&quot;font-size: 14px;&quot;&gt;OnKeyDown += KeyDown;&lt;/font&gt;" style="rounded=0;whiteSpace=wrap;html=1;" vertex="1" parent="1">
          <mxGeometry x="320" y="600" width="180" height="60" as="geometry" />
        </mxCell>
        <mxCell id="HJVtXFpzKHbwxDrWrKJv-7" value="&lt;font style=&quot;font-size: 18px;&quot;&gt;Конец&lt;/font&gt;" style="ellipse;whiteSpace=wrap;html=1;" vertex="1" parent="1">
          <mxGeometry x="320" y="690" width="180" height="80" as="geometry" />
        </mxCell>
        <mxCell id="HJVtXFpzKHbwxDrWrKJv-12" style="edgeStyle=orthogonalEdgeStyle;rounded=0;orthogonalLoop=1;jettySize=auto;html=1;exitX=0.5;exitY=1;exitDx=0;exitDy=0;entryX=0.5;entryY=0;entryDx=0;entryDy=0;" edge="1" parent="1" source="HJVtXFpzKHbwxDrWrKJv-8" target="HJVtXFpzKHbwxDrWrKJv-4">
          <mxGeometry relative="1" as="geometry" />
        </mxCell>
        <mxCell id="HJVtXFpzKHbwxDrWrKJv-8" value="n := round((x2 - x1) / (3 * 3 * 3));" style="rounded=0;whiteSpace=wrap;html=1;" vertex="1" parent="1">
          <mxGeometry x="320" y="340" width="180" height="60" as="geometry" />
        </mxCell>
      </root>
    </mxGraphModel>
  </diagram>
</mxfile>
